<?xml version="1.0" encoding="utf-8"?>
<!-- Generator: Adobe Illustrator 26.3.1, SVG Export Plug-In . SVG Version: 6.00 Build 0)  -->
<svg version="1.1" id="Layer_1" xmlns="http://www.w3.org/2000/svg" xmlns:xlink="http://www.w3.org/1999/xlink" width="156px" height="20px"
	 viewBox="0 0 156 20" style="enable-background:new 0 0 156 20;" xml:space="preserve">
<style type="text/css">
	.st0{fill:#A2AAAD;}
</style>
<path class="st0" d="M154.1,0.4c0.7,0,1.4,0.5,1.4,1.2c-0.1,0.8-0.8,1.3-1.5,1.2c-0.6-0.1-1.2-0.6-1.2-1.2
	C152.8,1,153.4,0.4,154.1,0.4C154.1,0.4,154.1,0.4,154.1,0.4z M154.1,2.6c0.5,0,1-0.5,0.9-1s-0.5-1-1-0.9c-0.5,0-0.9,0.4-0.9,1
	C153.1,2.2,153.6,2.6,154.1,2.6C154.1,2.6,154.1,2.6,154.1,2.6z M153.6,1h0.6c0.4,0,0.6,0.1,0.6,0.4c0,0.3-0.2,0.4-0.4,0.4l0.4,0.6
	h-0.3l-0.4-0.6h-0.2v0.6h-0.3L153.6,1z M153.9,1.6h0.3c0.2,0,0.3,0,0.3-0.2s-0.2-0.2-0.3-0.2h-0.2L153.9,1.6z"/>
<polygon class="st0" points="16.8,0.4 16.8,19.8 21.9,19.8 21.9,12.1 25.5,12.1 25.5,7.8 21.9,7.8 21.9,5.1 25.9,5.1 25.9,0.4 "/>
<polygon class="st0" points="26.7,0.4 26.7,19.8 35.9,19.8 35.9,15 31.8,15 31.8,12.1 35.5,12.1 35.5,7.8 31.8,7.8 31.8,5.1 
	35.9,5.1 35.9,0.4 "/>
<polygon class="st0" points="0.2,19.8 0.2,0.4 5.3,0.4 5.3,15 9.9,15 9.9,19.8 "/>
<rect x="10.7" y="0.4" class="st0" width="5.1" height="19.4"/>
<polygon class="st0" points="75.1,0.4 75.1,19.8 84.3,19.8 84.3,15 80.2,15 80.2,12.1 83.9,12.1 83.9,7.8 80.2,7.8 80.2,5.1 
	84.3,5.1 84.3,0.4 "/>
<polygon class="st0" points="39.1,0.4 39.1,5.1 42,5.1 42,19.8 47.2,19.8 47.2,5.1 50.1,5.1 50.1,0.4 "/>
<rect x="50.9" y="0.4" class="st0" width="5.1" height="19.4"/>
<polygon class="st0" points="66.9,0.4 65.6,10.1 64.2,0.4 57,0.4 57,19.8 61.8,19.8 61.8,9 63.7,19.8 67.5,19.8 69.3,9 69.3,19.8 
	74.2,19.8 74.2,0.4 "/>
<polygon class="st0" points="97,19.8 98.4,10.7 99.7,19.8 105.2,19.8 108.7,0.4 103.9,0.4 102.1,10.8 100.3,0.4 96.5,0.4 94.6,10.8 
	92.9,0.4 88,0.4 91.5,19.8 "/>
<path class="st0" d="M108.5,10.1c0-5.7,0.8-9.9,7.1-9.9c6.2,0,7.1,4.3,7.1,9.9c0,5.6-0.8,10-7.1,10C109.3,20,108.5,15.7,108.5,10.1z
	 M117.6,10.1c0-3.9-0.5-5.5-2.1-5.5c-1.6,0-2,1.6-2,5.5s0.4,5.4,2,5.4S117.6,14,117.6,10.1L117.6,10.1z"/>
<polygon class="st0" points="152.1,0.4 147,0.4 143.8,7.8 143.8,0.4 138.6,0.4 138.6,19.8 143.8,19.8 143.8,12.8 146.8,19.8 
	152.2,19.8 147.7,10.2 "/>
<path class="st0" d="M134,11.6c2.8-1.7,3.7-5.5,2-8.3c-1.1-1.8-3-2.9-5.2-2.9h-7.3v19.4h5.2v-7.6h0.3l0,0l3.3,7.5h5.4L134,11.6z
	 M130.2,8.4h-1.5V4.6h1.5c1.1,0,1.9,0.9,1.9,1.9S131.3,8.4,130.2,8.4L130.2,8.4L130.2,8.4z"/>
</svg>
